<?xml version="1.0" encoding="UTF-8"?><svg xmlns="http://www.w3.org/2000/svg" viewBox="0 0 526.01 366.73"><defs><style>.d{fill:#f15a24;}</style></defs><g id="a"/><g id="b"><g id="c"><path class="d" d="M224.92,329.19c-15.58-24.65-24.94-52.99-26.64-82.14-.76-12.97,1.12-25.8,.69-38.74-.38-11.47-3.39-22.05-12.78-29.26-1.37-1.05-3.65-.81-5.05,0-30.19,17.56-65.29,25.6-100.13,22.93-26.85-2.06-63.23-11.57-71.22-41.35l-6.15,6.15c32.54,11.71,67.7,16.02,102.11,12.52,17.13-1.74,34.08-5.25,50.41-10.74,17.22-5.79,33.46-13.94,49.85-21.69,33.86-16,69.23-25.24,106.55-28.44,33.24-2.85,69.81-.74,97.72-22.25,6.34-4.88,12.27-10.98,15.84-18.23,3.37-6.85,4.16-14.65,4.14-22.2-.03-8.22-1.09-16.38-1.63-24.57-.47-7.16-1.69-17.16,3.83-22.68h-7.07c7.98,9.02,15.76,18.95,24.79,26.94,8.18,7.23,18.78,12.9,29.87,9.11,10.29-3.53,16.52-12.53,23.8-19.98,3.61-3.69,7.26-6.5,12.29-7.86,2.1-.57,1.25,.02-.87-1.31,.16,.1,.03-.21-.09-.05,.06-.08-.15-.79,.04,.29,.11,.66,.3,1.3,.41,1.96,.97,6.32,.18,14.82-.37,21.76-.69,8.84-1.7,17.66-2.94,26.44-2.52,17.87-7.58,34.98-18.18,49.93-4.02,5.67-8.97,10.77-14.43,15.07s-14.03,11.59-20.89,7.6c-6.34-3.69-9.9-12.66-13.1-18.85-4.33-8.41-7.95-17.19-8.31-26.76-.24-6.42-10.24-6.45-10,0,.59,16.04,8.48,33.09,17.85,45.96,3.87,5.32,9.02,10.01,15.82,10.76,7.88,.86,15.04-3.84,21.18-8.21,19.53-13.91,33.48-37.02,37.78-60.62,3.23-17.7,5.58-36.04,5.88-54.04,.09-5.42,.82-14.32-3.67-18.39-3.56-3.23-9.21-1.4-13.11,.25-5.31,2.24-9.64,6.11-13.55,10.27-8.28,8.8-17.59,22.11-31.17,14.74-6.47-3.51-11.61-9.18-16.42-14.64-5.15-5.84-10.38-11.6-15.53-17.43-1.79-2.02-5.25-1.82-7.07,0-9.77,9.76-7.13,25.99-6.06,38.43,1.19,13.75,2.94,28.49-6.31,39.93-21.49,26.59-60.35,25.94-91.23,27.94-35.26,2.28-70.36,8.7-103.03,22.48-16.81,7.09-32.91,15.75-49.73,22.81-15.69,6.59-32.09,11.39-48.87,14.29-38.06,6.57-77.56,2.88-113.86-10.19-3.69-1.33-7.08,2.69-6.15,6.15,6.52,24.27,29.9,38.09,52.8,44.2,27.87,7.44,58.44,6.43,86.27-.59,16.46-4.15,32.3-10.68,46.98-19.22h-5.05c8.71,6.69,8.17,19.93,7.7,29.74-.63,13.39-1.24,26.5,.33,39.87,3.21,27.34,12.39,53.67,27.11,76.95,3.43,5.43,12.09,.41,8.63-5.05h0Z"/><path class="d" d="M488.81,147.77c-.86,9.25-.75,18.51-.55,27.78,.21,9.55-.2,18.97-.57,28.51-.78,19.8-.87,39.63-.08,59.43,.4,10.22,.8,20.54,1.98,30.7,1.14,9.78,2.57,19.48,2.69,29.35,.05,4.27,.48,9.61-.91,13.7s-5.03,3.55-8.62,2.5c-6.62-1.94-11.38-7.68-14.71-13.44-8.94-15.47-8.61-34.52-9.86-51.81s-4.92-33.91-11.83-50.13c-1.48-3.47-2.74-8.96-5.35-11.67-2.39-2.49-7.27-3.2-10.53-2.95-6.98,.54-12.91,5.44-16.48,11.22-4.38,7.09-5.51,16.58-6.56,24.69-1.2,9.19-1.42,18.45-1.19,27.71,.46,18.69,2.61,37.37,1.49,56.08-.43,7.24-.49,15.95-4.02,22.48-5.69,10.53-13.11,.24-16.54-6.04-8.03-14.69-8.88-31.79-9.98-48.12-1.29-19.03,.34-37.68,.48-56.71,.03-4.13,.63-9.06-1.05-12.92-1.38-3.18-4.1-5.67-7-7.47-6.69-4.14-15.63-5.57-23.28-6.67-17.45-2.5-35.24-.79-52.19,3.91-15.42,4.27-27.98,11.94-37.75,24.75-10.01,13.13-12.5,29.18-8,44.99,2.38,8.36,7.5,15.65,12.17,22.89s8.32,14.02,11.67,21.63c2.11,4.78,7.17,15.57,1.94,20.13-4.37,3.81-12.4-4.22-14.96-7.13-10-11.37-18.29-25.5-24.76-39.11-7.6-15.98-12.36-33.29-13.19-50.99-.45-9.5,.09-18.98,1.3-28.4,.82-6.37-9.19-6.31-10,0-3.32,25.92-.53,51.59,9.45,75.81,4.4,10.67,9.86,20.81,16.19,30.46,5.17,7.87,10.47,16.74,17.59,23.02,5.69,5.03,17.16,10.62,24.22,4.82,8.3-6.82,6.69-19.24,3.26-27.97-4.23-10.77-9.69-20.47-15.94-30.19-6.6-10.27-11.85-20.38-11.16-32.96,.64-11.67,7.3-21.58,15.7-29.31s19.58-11.7,30.99-14.34c12.62-2.92,25.69-3.99,38.59-2.62,6.41,.68,12.85,2.03,18.96,4.09,2,.67,4.32,1.42,5.79,3.04,2.38,2.62,1.5,7.22,1.47,10.55-.1,13.77-1.59,27.5-1.39,41.28,.16,11.54,1.14,23.35,2.53,34.81s3.78,22.2,8.95,32.31c4.39,8.57,11.89,19.24,23.05,16.98,12.18-2.47,15.01-17.09,16.08-27.42,1.51-14.46,1.19-28.85,.4-43.35-.8-14.8-1.84-29.67-.48-44.47,.67-7.32,1.6-15.78,4.47-22.63,2.15-5.14,7.68-10.88,13.66-8.01l-2.3-2.99c4.65,11.07,10.63,22.38,12.53,34.36,.4,2.53-.02,5.13,.47,7.64,.57,2.95,1.7,5.46,2.01,8.51,.64,6.4,.92,12.84,1.37,19.26,1.39,20.27,4.44,44.73,22.24,57.68,6.52,4.74,18.23,8.54,25.07,2.47,8.4-7.46,6.28-22.7,5.57-32.71-.94-13.16-2.95-26.17-3.71-39.35-.76-13.19-1.11-26.41-1.12-39.62,0-15.21,.62-30.38,1.28-45.57,.62-14.15-.85-28.27,.46-42.43,.59-6.41-9.41-6.36-10,0h0Z"/><path class="d" d="M457.38,137.97l7.22,1.27c2.57,.45,5.51-.69,6.15-3.49,.55-2.43-.74-5.67-3.49-6.15l-7.22-1.27c-2.57-.45-5.51,.69-6.15,3.49-.55,2.43,.74,5.67,3.49,6.15h0Z"/><path class="d" d="M459.36,81.67c.06,.01,.12,.02,.18,.05l-1.19-.5c.06,.03,.1,.05,.15,.09l-1.01-.78s.09,.08,.13,.12l-.78-1.01c.05,.07,.09,.13,.12,.21l-.5-1.19c.04,.1,.06,.19,.08,.3l-.18-1.33c0,.08,0,.16,0,.24l.18-1.33c-.01,.08-.03,.15-.06,.23l.5-1.19c-.03,.05-.06,.1-.09,.15l.78-1.01s-.08,.08-.13,.12l1.01-.78s-.08,.05-.12,.07l1.19-.5s-.09,.03-.14,.04l1.33-.18c-.07,0-.13,.01-.21,0l1.33,.18c-.07-.01-.13-.03-.2-.05l1.19,.5c-.09-.04-.17-.09-.25-.14l1.01,.78c-.06-.05-.11-.1-.16-.15l.78,1.01c-.06-.08-.11-.16-.15-.24l.5,1.19c-.02-.07-.04-.13-.05-.2l.18,1.33s0-.09,0-.14l-.18,1.33c.01-.08,.03-.14,.05-.21,.21-.66,.24-1.33,.09-1.99-.03-.67-.23-1.29-.59-1.86-.31-.58-.74-1.05-1.29-1.4-.48-.44-1.05-.74-1.7-.89-1.28-.29-2.72-.23-3.85,.5l-1.01,.78c-.62,.62-1.05,1.36-1.29,2.21-.35,.92-.3,2.28,0,3.21l.5,1.19s.03,.06,.05,.1c.03,.05,.07,.1,.1,.15,.64,.89,1.03,1.32,1.95,1.95,.27,.18,.53,.26,.85,.4,.78,.33,1.19,.5,2.16,.49,.06,0,.11,0,.17,0,.43-.03,1.02-.09,1.43-.21,.36-.1,.96-.37,1.29-.55,.4-.22,.76-.52,1.09-.83,.04-.03,.07-.07,.11-.1,.22-.22,.66-.8,.82-1.06,.13-.22,.21-.46,.31-.7,.07-.16,.23-.47,.29-.71s.09-.64,.11-.78c.03-.19,.1-.53,.1-.79s-.07-.57-.1-.79c-.02-.16-.05-.54-.11-.79-.01-.05-.03-.1-.05-.15-.11-.33-.37-.98-.54-1.28-.25-.42-.59-.85-.92-1.21s-.74-.68-1.17-.91c-.34-.18-.9-.44-1.27-.54-.06-.02-.11-.04-.18-.05-.66-.21-1.33-.24-1.99-.09-.67,.03-1.29,.23-1.86,.59-.58,.31-1.05,.74-1.4,1.29-.44,.48-.74,1.05-.89,1.7-.29,1.28-.23,2.72,.5,3.85l.78,1.01c.62,.62,1.36,1.05,2.21,1.29h0Z"/><path class="d" d="M482.72,77.28v3.11c0,2.62,2.3,5.12,5,5s5-2.2,5-5v-3.11c0-2.62-2.3-5.12-5-5s-5,2.2-5,5h0Z"/></g></g></svg>