<?xml version="1.0" encoding="UTF-8"?><svg xmlns="http://www.w3.org/2000/svg" viewBox="0 0 302.45 221.16"><defs><style>.d{fill:#f15a24;}</style></defs><g id="a"/><g id="b"><g id="c"><path class="d" d="M222.03,0c-43.51,2.3-86.69,10.27-128.07,23.94-20.18,6.66-40.14,14.53-59.2,23.95C18.7,55.85,2.82,67.54,.65,86.66c-.9,7.97,1.01,16.39,6.35,22.54,6.15,7.08,15.67,9.53,24.46,11.46,19.73,4.34,40.11,5.36,60.2,3.52,41.34-3.78,80.95-18.45,117.52-37.57,10-5.23,20.32-10.51,29.52-17.06,8.46-6.03,15.34-13.93,17.14-24.46,3.61-21.08-12.56-39.95-33.86-40.03-6.44-.03-6.44,9.97,0,10,17.44,.07,29.96,18.13,22.13,34.34-3.75,7.75-11.47,12.48-18.62,16.71-7.77,4.59-15.68,8.96-23.7,13.09-32.25,16.61-67.11,29.81-103.3,34.26-17.66,2.17-35.74,2.34-53.35-.37-8.38-1.29-18.02-2.54-25.57-6.59-6.94-3.72-9.78-10.8-9.07-18.45,1.58-17.07,18.36-26.31,32.2-32.91,17.2-8.2,34.96-15.25,53.04-21.26,40.82-13.56,83.33-21.59,126.28-23.87,6.4-.34,6.44-10.34,0-10h0Z"/><path class="d" d="M1.93,90.61C1.33,112.49,.17,134.36,.01,156.24c-.1,13.49,.11,28.24,7.97,39.87,6.48,9.59,16.75,14.95,27.69,17.94,17.86,4.88,37.35,6.07,55.76,6.84,72.05,3.02,149.3-18.83,195.11-77.88,5.63-7.25,11.91-15.29,14.83-24.1,3.52-10.6-2.28-19.61-7.79-28.24-13.58-21.26-27.16-42.53-40.75-63.79-3.45-5.41-12.11-.4-8.63,5.05,11.08,17.35,22.16,34.69,33.24,52.04l7.51,11.75c2.53,3.96,5.79,8.14,7.05,12.74,2.27,8.25-4.76,16.59-9.23,22.95-18.09,25.72-44,45.21-72.34,58.4-32.12,14.95-67.56,21.17-102.83,21.38-19.22,.12-38.59-1.3-57.58-4.33-10.45-1.67-22.19-4.19-30.04-11.84-9.5-9.26-10.03-23.41-9.99-35.83,.07-22.87,1.31-45.71,1.94-68.57,.18-6.44-9.82-6.43-10,0h0Z"/><path class="d" d="M44.48,186.26c-.99-10.53-.67-21.03,1.21-31.45l-8.36,2.21c9.68,12.51,30.32,10.53,38.6-2.38h-8.63c4.71,9.81,9.42,19.61,14.13,29.42,2.78,5.8,11.41,.73,8.63-5.05-4.71-9.81-9.42-19.61-14.13-29.42-1.71-3.56-6.76-2.92-8.63,0-5.14,8.03-17.35,7.51-22.89,.35-2.24-2.9-7.73-1.26-8.36,2.21-2.04,11.31-2.64,22.66-1.56,34.11,.6,6.35,10.61,6.41,10,0h0Z"/><path class="d" d="M97.37,149.28c-.56,15.64,1.88,37.77,21.19,40.74,6.3,.97,9.01-8.66,2.66-9.64-14.48-2.23-14.25-19.88-13.85-31.1,.23-6.44-9.77-6.43-10,0h0Z"/><path class="d" d="M102.31,149.96h13.05c6.43,0,6.45-10,0-10h-13.05c-6.43,0-6.45,10,0,10h0Z"/><path class="d" d="M111.01,169.54h8.7c2.7,0,5-2.3,5-5s-2.29-5-5-5h-8.7c-2.7,0-5,2.3-5,5s2.29,5,5,5h0Z"/><path class="d" d="M164.45,172.26c-4.13-7.57-7.45-15.45-9.81-23.76-.37-1.3-3.16-9.36-2.41-10.1,1.46-1.43,8.64,1.58,10.17,2.28,12.56,5.79,20.38,19.1,27.01,30.59,3.21,5.57,11.86,.54,8.63-5.05-8.98-15.58-21-34.17-40.26-37.34-4.32-.71-9.53-1.05-12.86,2.4s-2.7,7.88-1.87,11.98c2.42,11.9,6.95,23.38,12.76,34.02,3.08,5.65,11.72,.61,8.63-5.05h0Z"/><path class="d" d="M160.01,165.66c5.66-5.04,12.34-7.91,19.81-9.02,6.34-.95,3.65-10.59-2.66-9.64-9.15,1.37-17.34,5.47-24.22,11.6-4.82,4.29,2.28,11.34,7.07,7.07h0Z"/><path class="d" d="M202.79,125.46c6.48,9.04,13.84,17.25,22.25,24.53,3.86,3.34,9.3,.11,8.36-4.86-1.44-7.58,8.42-14.75,15.2-11.3,2.8,1.42,6.51,.3,7.34-2.99,3.69-14.59,4.87-29.6,3.33-44.58-.65-6.34-10.66-6.41-10,0,1.45,14.13,.52,28.14-2.97,41.92l7.34-2.99c-14.91-7.57-33,6.28-29.89,22.6l8.36-4.86c-7.75-6.7-14.71-14.18-20.69-22.51-3.72-5.18-12.4-.2-8.63,5.05h0Z"/></g></g></svg>