<?xml version="1.0" encoding="UTF-8"?><svg xmlns="http://www.w3.org/2000/svg" viewBox="0 0 208.56 198.89"><defs><style>.d{fill:#f15a24;}</style></defs><g id="a"/><g id="b"><g id="c"><path class="d" d="M94.8,184.59c3.63-14.03,7.51-28.05,8.67-42.56,1.25-15.73-.56-31.61-1.19-47.33-1.17-29.11,.48-59.64,12.23-86.7l-2.99,2.3c1.29-.3,4.48,9.32,5.01,10.48,1.7,3.67,3.87,7.26,6.81,10.08,5.18,4.97,12.71,7.67,19.73,5.28,12.16-4.14,13.1-18.87,22.9-25.36l-7.34-2.99c3.54,24.01,6.97,48.03,10.62,72.02,1.71,11.2,4.42,21.62,9.04,31.99s9.01,21.49,12.36,32.74c1.52,5.08,2.9,10.2,4.22,15.34,1.43,5.57,3.57,11.56,3.97,17.31,.35,5.03-2.47,9.07-7.08,5.01-3.86-3.41-6.2-8.66-8.77-13.02-5.08-8.63-9.29-17.24-19.11-21.09-9.75-3.83-21.21-5.1-31.62-4.53-5.43,.3-9.67,1.4-12.2,6.56-2.75,5.62-4.55,11.91-6.76,17.76-2.06,5.46-3.85,11.51-7.64,16.07-1.67,2.01-3.96,3.85-6.52,4.59-1.07,.31-2.84,.8-3.92,.16-1.5-.89-.84-2.37-.43-4.09,1.47-6.26-8.17-8.93-9.64-2.66-1.04,4.42-1.53,9.37,1.71,13.05,3.5,3.98,9.31,4.53,14.22,3.36,11.26-2.69,16.48-13.64,20.23-23.49,2.25-5.89,3.89-13.04,6.99-18.53,.83-1.47,.25-1.74,2.08-2.67,1.21-.61,4.28-.21,5.62-.21,3.93,0,7.87,.24,11.75,.84,5.23,.81,11.86,1.79,16.28,4.98,4.94,3.57,7.75,10.59,10.77,15.71,4.71,8.01,10.81,20.14,21.92,19.09,11.76-1.12,13.03-14.29,11.09-23.35-2.72-12.71-6.22-25.42-10.34-37.75-4.12-12.32-10.51-23.8-14.43-36.15-4.55-14.35-5.68-29.95-7.87-44.78l-6.92-46.9c-.46-3.14-4.89-4.62-7.34-2.99-5.33,3.53-8.68,8.65-11.9,14.04-2.61,4.38-5.8,11.05-11.78,10.83-9.52-.35-11.89-12.35-15.3-19.04-2.58-5.07-11.38-12.02-16.07-5.02-2.37,3.54-3.65,8.79-4.98,12.8-1.49,4.49-2.74,9.06-3.79,13.68-2.01,8.84-3.28,17.85-4.07,26.88-1.72,19.61-.68,39.12,.29,58.74,.57,11.58,1.01,23.26-.76,34.77-1.67,10.87-4.66,21.48-7.41,32.11-1.61,6.23,8.03,8.89,9.64,2.66Z"/><path class="d" d="M89.58,102.46c-29.81,14.87-59.15,35.89-80.05,62.11C4.97,170.28,.2,177.47,0,185.05c-.16,6.18,4.02,12.74,10.97,11.16,7.3-1.66,13.74-10.23,18.54-15.52,5.88-6.48,11.78-12.87,18.28-18.74,14.24-12.85,30.43-23.33,47.81-31.41,5.83-2.71,.76-11.34-5.05-8.63-26.5,12.33-48.57,30.19-68.11,51.72-2.3,2.53-4.63,5.04-7.09,7.42-1.23,1.18-2.48,2.35-3.79,3.44-.7,.58-1.5,1.41-2.32,1.8,1-.47,.5,1.02,.73-.64,1.01-7.24,5.63-13.14,10.39-18.45,9.64-10.76,20.35-20.64,31.75-29.51,13.22-10.28,27.52-19.12,42.5-26.59,5.76-2.87,.7-11.5-5.05-8.63h0Z"/><path class="d" d="M122.18,59.96c6.43,0,6.45-10,0-10s-6.45,10,0,10h0Z"/><path class="d" d="M146.9,59.96c6.43,0,6.45-10,0-10s-6.45,10,0,10h0Z"/></g></g></svg>