<svg width="254" height="255" viewBox="0 0 254 255" fill="none" xmlns="http://www.w3.org/2000/svg">
<path d="M16.6608 0.32673L236.883 0.326763C237.055 9.27009 244.273 16.488 253.216 16.6601V34.9708C250.27 35.1607 247.989 37.8971 247.989 41.1682C247.989 44.4393 250.27 47.1757 253.216 47.3656V50.0003C250.27 50.1902 247.989 52.9266 247.989 56.1976C247.989 59.4687 250.27 62.2051 253.216 62.395V65.0299C250.27 65.2198 247.989 67.9562 247.989 71.2273C247.989 74.4983 250.27 77.2347 253.216 77.4246V80.0595C250.27 80.2494 247.989 82.9858 247.989 86.2569C247.989 89.5279 250.27 92.2643 253.216 92.4542V110.765C244.164 110.939 236.88 118.331 236.88 127.425C236.88 136.518 244.164 143.911 253.216 144.085V160.435C250.27 160.625 247.989 163.361 247.989 166.632C247.989 169.903 250.27 172.64 253.216 172.83V175.465C250.27 175.655 247.989 178.391 247.989 181.662C247.989 184.933 250.27 187.67 253.216 187.859V190.494C250.27 190.684 247.989 193.421 247.989 196.692C247.989 199.963 250.27 202.699 253.216 202.889V205.524C250.27 205.714 247.989 208.45 247.989 211.721C247.989 214.992 250.27 217.729 253.216 217.919V238.19C244.273 238.362 237.055 245.58 236.883 254.523H16.6608C16.4887 245.579 9.27008 238.362 0.32673 238.19V220.532C3.27286 220.343 5.55389 217.606 5.55389 214.335C5.55389 211.064 3.27286 208.327 0.32673 208.138V205.503C3.27286 205.313 5.55389 202.577 5.55389 199.306C5.55389 196.034 3.27286 193.298 0.32673 193.108V190.473C3.27286 190.284 5.55389 187.547 5.55389 184.276C5.55389 181.005 3.27286 178.268 0.32673 178.079V175.444C3.27286 175.254 5.55389 172.517 5.55389 169.246C5.55389 165.975 3.27286 163.239 0.326741 163.049L0.327375 144.085C9.37943 143.911 16.6639 136.519 16.6639 127.425C16.6639 118.331 9.37878 110.939 0.32673 110.765V93.7611C3.27286 93.5713 5.55389 90.8349 5.55389 87.5637C5.55389 84.2926 3.27286 81.5562 0.32673 81.3664V78.7315C3.27286 78.5417 5.55389 75.8052 5.55389 72.5341C5.55389 69.263 3.27286 66.5265 0.32673 66.3367V63.702C3.27286 63.5122 5.55389 60.7758 5.55389 57.5047C5.55389 54.2336 3.27286 51.4971 0.32673 51.3073V48.6724C3.27286 48.4826 5.55389 45.7462 5.55389 42.475C5.55389 39.2039 3.27286 36.4675 0.32674 36.2777L0.327376 16.6601C9.27078 16.4881 16.4888 9.27016 16.6608 0.32673Z" fill="white" stroke="black" stroke-width="0.65346"/>
<rect x="24.1789" y="14.3761" width="204.533" height="91.4844" rx="12.4157" stroke="#E45531" stroke-width="1.30692"/>
<rect x="24.1789" y="145.722" width="204.533" height="91.4844" rx="12.4157" stroke="#E45531" stroke-width="1.30692"/>
</svg>
